<?xml version="1.0" encoding="utf-8"?>
<!-- Generator: Adobe Illustrator 16.0.0, SVG Export Plug-In . SVG Version: 6.00 Build 0)  -->
<!DOCTYPE svg PUBLIC "-//W3C//DTD SVG 1.1//EN" "http://www.w3.org/Graphics/SVG/1.1/DTD/svg11.dtd">
<svg version="1.1" id="Layer_1" xmlns="http://www.w3.org/2000/svg" xmlns:xlink="http://www.w3.org/1999/xlink" x="0px" y="0px"
	 width="32px" height="32px" viewBox="0 0 32 32" enable-background="new 0 0 32 32" xml:space="preserve">
<g>
	<path fill-rule="evenodd" clip-rule="evenodd" fill="#FFFFFF" d="M16.005,0C7.22-0.003,0.032,7.17,0.034,15.954
		c0.001,8.875,7.139,15.813,15.623,15.985c8.996,0.182,16.176-7.063,16.309-15.713C32.1,7.563,25.16,0.059,16.005,0z M15.938,31.367
		c-8.543-0.024-15.513-7.08-15.326-15.734C0.794,7.214,7.8,0.417,16.326,0.587C24.403,0.75,31.34,7.317,31.402,15.983
		C31.4,24.474,24.465,31.389,15.938,31.367z"/>
	<path fill-rule="evenodd" clip-rule="evenodd" fill="#FFFFFF" d="M16.042,11.654c-2.389-0.008-4.32,1.9-4.332,4.28
		c-0.011,2.422,1.933,4.396,4.321,4.384c2.329-0.013,4.299-1.935,4.308-4.204C20.349,13.59,18.49,11.662,16.042,11.654z
		 M19.763,16.131c-0.163,2.167-1.925,3.749-3.995,3.588c-2.06-0.161-3.63-1.963-3.478-3.992c0.154-2.062,1.948-3.638,3.976-3.492
		C18.298,12.382,19.908,14.178,19.763,16.131z"/>
	<path fill-rule="evenodd" clip-rule="evenodd" fill="#FFFFFF" d="M16.026,10.265c0.277,0.005,0.309-0.195,0.308-0.416
		c-0.003-0.59-0.001-1.181-0.001-1.771c0-0.59-0.001-1.18,0-1.77c0-0.212-0.009-0.432-0.284-0.441
		c-0.276-0.01-0.308,0.199-0.307,0.417c0.002,1.193,0.001,2.386,0,3.58C15.742,10.066,15.769,10.26,16.026,10.265z"/>
	<path fill-rule="evenodd" clip-rule="evenodd" fill="#FFFFFF" d="M16.333,22.07c0-0.207-0.048-0.392-0.299-0.385
		c-0.248,0.004-0.292,0.188-0.292,0.395c0.001,1.202,0.001,2.404,0,3.604c0,0.204,0.029,0.397,0.282,0.403
		c0.274,0.007,0.311-0.192,0.31-0.414c-0.002-0.588,0-1.176,0-1.764C16.333,23.298,16.333,22.684,16.333,22.07z"/>
	<path fill-rule="evenodd" clip-rule="evenodd" fill="#FFFFFF" d="M25.815,15.674c-1.204-0.003-2.408-0.003-3.61,0
		c-0.204,0-0.391,0.052-0.389,0.305c0.005,0.254,0.187,0.287,0.395,0.285c0.602-0.004,1.204-0.001,1.806-0.001
		c0.589,0,1.178-0.002,1.769,0.001c0.215,0.001,0.423-0.014,0.426-0.294C26.212,15.716,26.015,15.675,25.815,15.674z"/>
	<path fill-rule="evenodd" clip-rule="evenodd" fill="#FFFFFF" d="M10.241,15.992c0.014-0.25-0.171-0.316-0.376-0.317
		c-1.215-0.004-2.432-0.004-3.648-0.001c-0.211,0-0.408,0.09-0.359,0.321c0.023,0.11,0.232,0.25,0.362,0.256
		c0.601,0.027,1.204,0.012,1.806,0.012c0.601,0,1.203-0.002,1.805,0.001C10.034,16.266,10.227,16.245,10.241,15.992z"/>
	<path fill-rule="evenodd" clip-rule="evenodd" fill="#FFFFFF" d="M21.354,11.696c0.839-0.846,1.68-1.691,2.518-2.54
		c0.075-0.076,0.126-0.176,0.289-0.411c-0.111-0.046-0.222-0.129-0.324-0.123c-0.136,0.009-0.298,0.054-0.391,0.145
		c-0.852,0.833-1.697,1.674-2.526,2.532c-0.101,0.104-0.169,0.385-0.104,0.471C20.982,11.992,21.189,11.861,21.354,11.696z"/>
	<path fill-rule="evenodd" clip-rule="evenodd" fill="#FFFFFF" d="M21.274,20.2c-0.088-0.084-0.301-0.041-0.455-0.056
		c0.017,0.152-0.026,0.363,0.058,0.45c0.845,0.876,1.71,1.73,2.572,2.589c0.062,0.061,0.154,0.149,0.213,0.138
		c0.142-0.03,0.271-0.114,0.44-0.193c-0.106-0.165-0.147-0.26-0.215-0.326C23.022,21.928,22.157,21.055,21.274,20.2z"/>
	<path fill-rule="evenodd" clip-rule="evenodd" fill="#FFFFFF" d="M10.69,20.273c-0.744,0.745-1.489,1.487-2.232,2.232
		c-0.124,0.124-0.26,0.242-0.354,0.386c-0.051,0.08-0.06,0.221-0.025,0.31c0.028,0.075,0.146,0.114,0.253,0.188
		c0.14-0.107,0.277-0.191,0.388-0.303c0.799-0.796,1.591-1.599,2.386-2.399c0.157-0.156,0.326-0.333,0.121-0.539
		C11.015,19.935,10.844,20.118,10.69,20.273z"/>
	<path fill-rule="evenodd" clip-rule="evenodd" fill="#FFFFFF" d="M10.731,11.715c0.157,0.157,0.361,0.267,0.506,0.058
		c0.065-0.093-0.008-0.369-0.109-0.474c-0.826-0.855-1.673-1.691-2.516-2.53C8.535,8.693,8.438,8.638,8.319,8.549
		C8.223,8.629,8.08,8.692,8.075,8.766C8.067,8.896,8.101,9.071,8.188,9.16C9.028,10.021,9.882,10.866,10.731,11.715z"/>
</g>
</svg>
