<?xml version="1.0" encoding="utf-8"?>
<!-- Generator: Adobe Illustrator 16.0.0, SVG Export Plug-In . SVG Version: 6.00 Build 0)  -->
<!DOCTYPE svg PUBLIC "-//W3C//DTD SVG 1.1//EN" "http://www.w3.org/Graphics/SVG/1.1/DTD/svg11.dtd">
<svg version="1.1" id="Layer_1" xmlns="http://www.w3.org/2000/svg" xmlns:xlink="http://www.w3.org/1999/xlink" x="0px" y="0px"
	 width="32px" height="32px" viewBox="0 0 32 32" enable-background="new 0 0 32 32" xml:space="preserve">
<g>
	<path fill-rule="evenodd" clip-rule="evenodd" fill="#FFFFFF" d="M16.041,0C7.246-0.015,0.021,7.169,0,15.955
		c-0.021,8.908,7.11,15.892,15.624,16.091c9.05,0.211,16.256-7.053,16.416-15.713C32.202,7.606,25.225,0.067,16.041,0z
		 M16.002,31.474C7.406,31.463,0.396,24.38,0.582,15.689C0.762,7.242,7.79,0.42,16.344,0.59c8.104,0.16,15.065,6.747,15.133,15.442
		C31.476,24.536,24.52,31.483,16.002,31.474z"/>
	<path fill-rule="evenodd" clip-rule="evenodd" fill="#FFFFFF" d="M19.378,17.842c0.062,0,0.146,0.021,0.185-0.012
		c0.098-0.077,0.244-0.18,0.246-0.273c0-0.096-0.135-0.222-0.239-0.277c-0.091-0.048-0.222-0.017-0.335-0.017
		c-2.481-0.001-4.962-0.001-7.443-0.001c-0.148,0-0.296,0-0.479,0c0-0.113-0.004-0.163,0.001-0.213
		c0.263-2.355,2.222-4.118,4.53-4.246c2.1-0.116,4.203,1.383,4.76,3.503c0.091,0.35,0.109,0.718,0.163,1.078
		c0.032,0.206,0.011,0.471,0.329,0.447c0.284-0.021,0.277-0.252,0.258-0.456c-0.029-0.325-0.046-0.656-0.122-0.971
		c-0.508-2.075-1.795-3.459-3.852-3.995c-2.104-0.548-3.939,0.05-5.389,1.682c-0.933,1.049-1.326,2.31-1.286,3.733
		c0.101,0.007,0.174,0.017,0.246,0.017C13.761,17.843,16.569,17.843,19.378,17.842z"/>
	<path fill-rule="evenodd" clip-rule="evenodd" fill="#FFFFFF" d="M26.037,19.177c-0.089-0.05-0.222-0.024-0.334-0.024
		c-4.081,0-8.163,0-12.244,0.001c-0.137,0-0.292-0.01-0.406,0.049c-0.084,0.044-0.158,0.192-0.155,0.292
		c0.001,0.077,0.115,0.185,0.202,0.22c0.098,0.041,0.223,0.019,0.336,0.019c2.041,0,4.081,0,6.123,0c2.04,0,4.081,0,6.122,0
		c0.113,0,0.242,0.031,0.336-0.014c0.104-0.05,0.244-0.168,0.245-0.259C26.264,19.364,26.138,19.235,26.037,19.177z"/>
	<path fill-rule="evenodd" clip-rule="evenodd" fill="#FFFFFF" d="M19.196,21.082C19.123,21.036,19,21.068,18.9,21.068
		c-1.825,0-3.653,0-5.479,0s-3.653,0-5.479,0c-0.113,0-0.247-0.033-0.335,0.017c-0.1,0.055-0.208,0.178-0.218,0.283
		c-0.008,0.075,0.124,0.192,0.218,0.242c0.081,0.042,0.197,0.012,0.298,0.012c3.665,0,7.33,0,10.994,0
		c0.101,0,0.219,0.028,0.299-0.013c0.097-0.052,0.234-0.169,0.226-0.244C19.412,21.261,19.298,21.145,19.196,21.082z"/>
	<path fill-rule="evenodd" clip-rule="evenodd" fill="#FFFFFF" d="M10.84,19.733c0.212,0,0.436-0.003,0.439-0.282
		c0.001-0.272-0.217-0.299-0.432-0.299c-1.549,0-3.098,0-4.646,0c-0.211,0-0.435,0.016-0.438,0.293
		c-0.004,0.284,0.217,0.288,0.431,0.288c0.781-0.003,1.561-0.001,2.341-0.001C9.304,19.732,10.072,19.73,10.84,19.733z"/>
	<path fill-rule="evenodd" clip-rule="evenodd" fill="#FFFFFF" d="M8.308,17.843c0.217,0,0.428-0.023,0.417-0.306
		c-0.01-0.259-0.214-0.274-0.413-0.274c-1.511-0.001-3.021,0-4.532-0.001c-0.218,0-0.428,0.03-0.417,0.31
		c0.01,0.255,0.212,0.271,0.414,0.271c0.756-0.003,1.511-0.001,2.266-0.001S7.553,17.842,8.308,17.843z"/>
	<path fill-rule="evenodd" clip-rule="evenodd" fill="#FFFFFF" d="M28.235,17.262c-0.742,0-1.485,0-2.228,0
		c-0.743,0-1.485,0-2.229,0.001c-0.219,0-0.466-0.01-0.458,0.302c0.007,0.282,0.235,0.278,0.444,0.278
		c1.485-0.001,2.971-0.001,4.455,0c0.224,0,0.466,0.002,0.46-0.302C28.677,17.26,28.442,17.262,28.235,17.262z"/>
	<path fill-rule="evenodd" clip-rule="evenodd" fill="#FFFFFF" d="M15.75,9.928c-0.001,0.212,0,0.436,0.281,0.439
		c0.277,0.004,0.299-0.214,0.299-0.429c0-1.498,0-2.997,0-4.494c0-0.211-0.014-0.438-0.288-0.441
		c-0.274-0.003-0.294,0.213-0.293,0.431c0.004,0.755,0.001,1.511,0.001,2.266C15.75,8.442,15.753,9.185,15.75,9.928z"/>
	<path fill-rule="evenodd" clip-rule="evenodd" fill="#FFFFFF" d="M22.336,12.375c0.076-0.061,0.2-0.143,0.306-0.246
		c1.024-1.021,2.047-2.044,3.07-3.068c0.062-0.062,0.155-0.12,0.173-0.193c0.026-0.109,0.042-0.268-0.02-0.337
		c-0.061-0.07-0.22-0.083-0.332-0.072c-0.072,0.007-0.143,0.094-0.205,0.155c-1.059,1.058-2.117,2.117-3.175,3.177
		c-0.062,0.061-0.125,0.13-0.158,0.208C21.916,12.19,22.067,12.39,22.336,12.375z"/>
	<path fill-rule="evenodd" clip-rule="evenodd" fill="#FFFFFF" d="M6.335,9.071c1.014,1.014,2.027,2.029,3.043,3.041
		c0.087,0.088,0.183,0.178,0.292,0.232c0.188,0.09,0.406-0.051,0.403-0.306c-0.061-0.076-0.144-0.201-0.247-0.305
		C8.888,10.788,7.943,9.847,7,8.904C6.875,8.78,6.769,8.621,6.62,8.542c-0.118-0.063-0.288-0.03-0.435-0.04
		c0.006,0.145,0.001,0.292,0.024,0.434C6.217,8.986,6.291,9.027,6.335,9.071z"/>
	<path fill-rule="evenodd" clip-rule="evenodd" fill="#FFFFFF" d="M24.31,21.066c-1.021,0.004-2.042,0.004-3.062,0
		c-0.205-0.001-0.363,0.053-0.365,0.278s0.157,0.282,0.362,0.279c0.504-0.007,1.008-0.002,1.512-0.002
		c0.516,0,1.032-0.003,1.55,0.002c0.202,0.003,0.365-0.054,0.367-0.276C24.675,21.125,24.515,21.065,24.31,21.066z"/>
</g>
</svg>
