<?xml version="1.0" encoding="utf-8"?>
<!-- Generator: Adobe Illustrator 16.0.0, SVG Export Plug-In . SVG Version: 6.00 Build 0)  -->
<!DOCTYPE svg PUBLIC "-//W3C//DTD SVG 1.1//EN" "http://www.w3.org/Graphics/SVG/1.1/DTD/svg11.dtd">
<svg version="1.1" id="Layer_1" xmlns="http://www.w3.org/2000/svg" xmlns:xlink="http://www.w3.org/1999/xlink" x="0px" y="0px"
	 width="32px" height="32px" viewBox="0 0 32 32" enable-background="new 0 0 32 32" xml:space="preserve">
<path fill-rule="evenodd" clip-rule="evenodd" fill="#FFFFFF" d="M5.579,15.128c-0.676,0-1.352-0.003-2.027,0.001
	c-0.205,0.001-0.4-0.025-0.408-0.273c-0.008-0.274,0.201-0.306,0.418-0.306c1.339,0.001,2.678,0,4.017,0.002
	c0.201,0,0.432-0.012,0.44,0.279c0.009,0.323-0.237,0.296-0.45,0.297C6.906,15.129,6.242,15.128,5.579,15.128z"/>
<g>
	<path fill-rule="evenodd" clip-rule="evenodd" fill="#FFFFFF" d="M15.957,0C7.184-0.007,0,7.159,0,15.931
		c0,8.848,7.097,15.778,15.563,15.97c9.021,0.206,16.197-7.054,16.334-15.69C32.031,7.558,25.102,0.062,15.957,0z M15.886,31.33
		C7.353,31.307,0.391,24.26,0.578,15.615C0.759,7.206,7.757,0.416,16.273,0.587c8.068,0.162,14.996,6.721,15.06,15.377
		C31.331,24.446,24.403,31.354,15.886,31.33z"/>
	<path fill-rule="evenodd" clip-rule="evenodd" fill="#FFFFFF" d="M25.681,15.573c-0.217-0.031-0.312-0.104-0.381-0.322
		c-0.854-2.693-3.567-4.116-6.274-3.286c-0.26,0.08-0.37,0.011-0.517-0.184c-1.267-1.676-3.459-2.341-5.45-1.668
		c-1.955,0.661-3.32,2.541-3.289,4.612c0.009,0.625,0.163,1.25,0.255,1.902c-0.016,0.008-0.083,0.039-0.151,0.07
		c-1.383,0.656-2.167,2.143-1.892,3.585c0.33,1.716,1.653,2.771,3.5,2.771c3.7,0.004,7.4,0.003,11.1-0.001
		c0.247,0,0.61,0.08,0.598-0.312c-0.011-0.369-0.366-0.259-0.596-0.259c-3.75-0.005-7.5,0-11.25-0.006
		c-1.207-0.001-2.219-0.695-2.636-1.775c-0.395-1.021-0.119-2.225,0.681-2.972c0.86-0.802,2.028-0.965,3.14-0.438
		c0.085,0.041,0.178,0.066,0.271,0.102c0.749-1.43,1.904-1.95,3.435-1.594c0.69-2.549,2.723-3.523,4.378-3.5
		c1.877,0.026,3.827,1.277,4.31,3.784c0.149,0.008,0.272,0.015,0.398,0.023c1.772,0.113,3.133,1.7,2.965,3.456
		c-0.158,1.623-1.333,2.744-3.067,2.909c-0.215,0.021-0.396,0.063-0.381,0.304c0.015,0.238,0.204,0.277,0.415,0.27
		c1.924-0.072,3.522-1.6,3.62-3.463C28.969,17.556,27.622,15.852,25.681,15.573z M15.819,15.137c-0.314,0-0.641-0.037-0.957,0.007
		c-0.899,0.124-1.622,0.571-2.167,1.293c-0.117,0.154-0.206,0.177-0.401,0.136c-0.424-0.089-0.863-0.151-1.295-0.153
		c-0.269,0-0.363-0.085-0.443-0.32c-0.677-1.998,0.24-4.233,2.144-5.199c1.907-0.967,4.227-0.38,5.466,1.415
		C17.049,12.967,16.264,13.881,15.819,15.137z"/>
	<path fill-rule="evenodd" clip-rule="evenodd" fill="#FFFFFF" d="M14.59,8.396c0.277-0.005,0.286-0.226,0.286-0.437
		c-0.001-0.675,0-1.351,0-2.026c0-0.663-0.001-1.327,0-1.989c0-0.213-0.017-0.425-0.297-0.424c-0.292,0.001-0.28,0.23-0.28,0.434
		c-0.001,1.339,0,2.677-0.001,4.016C14.298,8.181,14.31,8.401,14.59,8.396z"/>
	<path fill-rule="evenodd" clip-rule="evenodd" fill="#FFFFFF" d="M9.145,10.111c0.066-0.097,0.01-0.37-0.087-0.47
		C8.118,8.671,7.159,7.721,6.201,6.77C6.118,6.688,6.004,6.635,5.875,6.549C5.777,6.638,5.649,6.699,5.635,6.78
		C5.617,6.883,5.655,7.037,5.728,7.11c0.973,0.989,1.957,1.968,2.939,2.948C8.814,10.206,9.017,10.299,9.145,10.111z"/>
	<path fill-rule="evenodd" clip-rule="evenodd" fill="#FFFFFF" d="M19.811,10.168c0.126,0.027,0.322-0.045,0.418-0.14
		c0.966-0.945,1.917-1.904,2.871-2.862c0.074-0.076,0.119-0.181,0.191-0.294c-0.068-0.093-0.115-0.224-0.182-0.233
		c-0.121-0.018-0.289-0.007-0.374,0.066c-0.274,0.235-0.52,0.504-0.777,0.76c-0.717,0.716-1.434,1.431-2.147,2.15
		C19.556,9.872,19.554,10.112,19.811,10.168z"/>
</g>
</svg>
