<?xml version="1.0" encoding="utf-8"?>
<!-- Generator: Adobe Illustrator 16.0.0, SVG Export Plug-In . SVG Version: 6.00 Build 0)  -->
<!DOCTYPE svg PUBLIC "-//W3C//DTD SVG 1.1//EN" "http://www.w3.org/Graphics/SVG/1.1/DTD/svg11.dtd">
<svg version="1.1" id="Layer_1" xmlns="http://www.w3.org/2000/svg" xmlns:xlink="http://www.w3.org/1999/xlink" x="0px" y="0px"
	 width="32px" height="32px" viewBox="0 0 32 32" enable-background="new 0 0 32 32" xml:space="preserve">
<path fill="#FFFFFF" d="M10.703,0.851c-0.407-0.407-0.947-0.63-1.521-0.63c-0.573,0-1.112,0.223-1.517,0.629
	c-0.407,0.406-0.63,0.944-0.63,1.517c0,0.575,0.223,1.115,0.63,1.521l11.367,11.37c0.409,0.411,0.409,1.076,0,1.486L7.666,28.113
	c-0.407,0.406-0.63,0.945-0.63,1.52s0.223,1.112,0.628,1.518c0.406,0.406,0.945,0.631,1.518,0.631c0.574,0,1.114-0.225,1.521-0.631
	L24.332,17.52c0.406-0.406,0.632-0.947,0.632-1.52c0-0.573-0.224-1.111-0.632-1.518L10.703,0.851z"/>
</svg>
