<?xml version="1.0" encoding="utf-8"?>
<!-- Generator: Adobe Illustrator 16.0.0, SVG Export Plug-In . SVG Version: 6.00 Build 0)  -->
<!DOCTYPE svg PUBLIC "-//W3C//DTD SVG 1.1//EN" "http://www.w3.org/Graphics/SVG/1.1/DTD/svg11.dtd">
<svg version="1.1" id="Layer_1" xmlns="http://www.w3.org/2000/svg" xmlns:xlink="http://www.w3.org/1999/xlink" x="0px" y="0px"
	 width="32px" height="32px" viewBox="0 0 32 32" enable-background="new 0 0 32 32" xml:space="preserve">
<g>
	<path fill-rule="evenodd" clip-rule="evenodd" fill="#FFFFFF" d="M15.983,0C7.196-0.034,0.008,7.166,0,15.952
		c0.008,8.861,7.111,15.803,15.591,15.995c9.035,0.206,16.224-7.066,16.357-15.717C32.084,7.564,25.143,0.035,15.983,0z
		 M16.057,31.382C7.55,31.397,0.727,24.58,0.58,16.268C0.427,7.608,7.395,0.708,15.743,0.58c8.346-0.128,15.564,6.558,15.642,15.374
		C31.393,24.403,24.468,31.365,16.057,31.382z"/>
	<path fill-rule="evenodd" clip-rule="evenodd" fill="#FFFFFF" d="M13.87,12.157c0.46-2.195,1.552-4.005,3.266-5.446
		c0.111-0.093,0.251-0.301,0.212-0.382c-0.054-0.12-0.25-0.241-0.392-0.247c-0.849-0.036-1.713-0.135-2.551-0.038
		c-5.553,0.641-9.485,5.69-8.777,11.217c0.638,4.983,4.906,8.729,10.485,8.729c1.679-0.019,3.686-0.667,5.456-2.009
		c0.135-0.103,0.21-0.284,0.312-0.43c-0.16-0.093-0.312-0.24-0.484-0.27C16.275,22.382,12.802,17.252,13.87,12.157z M10.472,23.915
		c-3.876-2.493-5.41-7.431-3.555-11.684c1.961-4.499,6.456-5.999,9.394-5.616c-5.579,4.837-3.854,15.025,4.486,17.137
		C18.574,25.529,14.134,26.27,10.472,23.915z"/>
	<path fill-rule="evenodd" clip-rule="evenodd" fill="#FFFFFF" d="M23.462,12.496c-0.769-0.074-1.339-0.461-1.783-1.063
		c-0.382-0.517-0.596-1.095-0.651-1.738c-0.016-0.158-0.121-0.307-0.185-0.459c-0.052-0.002-0.101-0.005-0.152-0.008
		c-0.077,0.107-0.183,0.205-0.228,0.324c-0.048,0.139-0.04,0.297-0.062,0.445c-0.164,1.177-1.198,2.497-2.435,2.502
		c-0.096,0-0.19,0.178-0.285,0.273c0.096,0.095,0.183,0.263,0.288,0.274c1.365,0.151,2.012,1.053,2.381,2.246
		c0.065,0.213,0.048,0.453,0.114,0.666c0.036,0.117,0.166,0.205,0.256,0.306c0.102-0.101,0.238-0.187,0.3-0.309
		c0.056-0.115,0.027-0.271,0.047-0.407c0.192-1.264,1.253-2.482,2.399-2.5c0.11-0.002,0.217-0.183,0.323-0.279
		C23.682,12.672,23.579,12.507,23.462,12.496z M20.735,14.366c-0.438-0.5-0.939-1.077-1.394-1.597
		c0.444-0.507,0.946-1.08,1.452-1.659c0.304,0.626,0.773,1.238,1.398,1.591C21.684,13.283,21.172,13.866,20.735,14.366z"/>
	<path fill-rule="evenodd" clip-rule="evenodd" fill="#FFFFFF" d="M21.131,19.299c-0.026-0.166-0.19-0.312-0.264-0.424
		c-0.379,0.035-0.546,0.166-0.544,0.433c0.003,0.245,0.153,0.401,0.398,0.405C20.982,19.717,21.172,19.562,21.131,19.299z"/>
	<path fill-rule="evenodd" clip-rule="evenodd" fill="#FFFFFF" d="M25.658,12.741c0.024,0.151,0.199,0.365,0.336,0.389
		c0.132,0.025,0.303-0.156,0.457-0.246c0.004-0.054,0.009-0.107,0.012-0.161c-0.139-0.108-0.264-0.273-0.42-0.312
		C25.818,12.353,25.625,12.519,25.658,12.741z"/>
</g>
</svg>
