<?xml version="1.0" encoding="utf-8"?>
<!-- Generator: Adobe Illustrator 16.0.0, SVG Export Plug-In . SVG Version: 6.00 Build 0)  -->
<!DOCTYPE svg PUBLIC "-//W3C//DTD SVG 1.1//EN" "http://www.w3.org/Graphics/SVG/1.1/DTD/svg11.dtd">
<svg version="1.1" id="Layer_1" xmlns="http://www.w3.org/2000/svg" xmlns:xlink="http://www.w3.org/1999/xlink" x="0px" y="0px"
	 width="32px" height="32px" viewBox="0 0 32 32" enable-background="new 0 0 32 32" xml:space="preserve">
<path fill="#FFFFFF" d="M21.297,0.851c0.406-0.407,0.947-0.63,1.521-0.63c0.572,0,1.111,0.223,1.516,0.629
	c0.406,0.406,0.631,0.944,0.631,1.517c0,0.575-0.225,1.115-0.631,1.521l-11.368,11.37c-0.41,0.411-0.41,1.076,0,1.486l11.368,11.369
	c0.406,0.406,0.631,0.947,0.631,1.521c0,0.574-0.225,1.112-0.629,1.517c-0.406,0.408-0.945,0.631-1.518,0.631
	c-0.574,0-1.115-0.225-1.521-0.629L7.667,17.52C7.26,17.111,7.036,16.572,7.036,16c0-0.572,0.224-1.111,0.632-1.518L21.297,0.851z"
	/>
</svg>
