<?xml version="1.0" encoding="utf-8"?>
<!-- Generator: Adobe Illustrator 16.0.0, SVG Export Plug-In . SVG Version: 6.00 Build 0)  -->
<!DOCTYPE svg PUBLIC "-//W3C//DTD SVG 1.1//EN" "http://www.w3.org/Graphics/SVG/1.1/DTD/svg11.dtd">
<svg version="1.1" id="Layer_1" xmlns="http://www.w3.org/2000/svg" xmlns:xlink="http://www.w3.org/1999/xlink" x="0px" y="0px"
	 width="32px" height="32px" viewBox="0 0 32 32" enable-background="new 0 0 32 32" xml:space="preserve">
<path fill="#FFFFFF" d="M18.911,8.375c0,1.103,0.897,2,2,2h6.151c1.103,0,2-0.897,2-2V2.224c0-1.103-0.897-2-2-2s-2,0.897-2,2v1.432
	c-2.631-1.919-5.811-2.965-9.062-2.965c-8.473,0-15.365,6.893-15.365,15.364c0,8.472,6.893,15.365,15.365,15.365
	c4.887,0,9.37-2.246,12.301-6.161c0.321-0.428,0.457-0.954,0.381-1.483s-0.354-0.997-0.781-1.316
	c-0.851-0.637-2.164-0.446-2.8,0.401c-2.17,2.897-5.487,4.56-9.102,4.56c-6.267,0-11.365-5.099-11.365-11.365S9.733,4.691,16,4.691
	c2.152,0,4.188,0.579,5.966,1.685h-1.057C19.808,6.376,18.911,7.273,18.911,8.375z"/>
</svg>
