<?xml version="1.0" encoding="utf-8"?>
<!-- Generator: Adobe Illustrator 16.0.0, SVG Export Plug-In . SVG Version: 6.00 Build 0)  -->
<!DOCTYPE svg PUBLIC "-//W3C//DTD SVG 1.1//EN" "http://www.w3.org/Graphics/SVG/1.1/DTD/svg11.dtd">
<svg version="1.1" id="Layer_1" xmlns="http://www.w3.org/2000/svg" xmlns:xlink="http://www.w3.org/1999/xlink" x="0px" y="0px"
	 width="32px" height="32px" viewBox="0 0 32 32" enable-background="new 0 0 32 32" xml:space="preserve">
<g>
	<path fill="#FFFFFF" d="M15.938,24.119c-4.478,0-8.12-3.642-8.12-8.12c0-4.477,3.642-8.119,8.12-8.119
		c4.478,0,8.121,3.642,8.121,8.119C24.059,20.478,20.416,24.119,15.938,24.119z M15.938,9.858c-3.386,0-6.141,2.754-6.141,6.141
		c0,3.387,2.755,6.142,6.141,6.142s6.143-2.755,6.143-6.142C22.081,12.613,19.324,9.858,15.938,9.858z"/>
	<g>
		<path fill="#FFFFFF" d="M15.938,6.025c-0.546,0-0.988-0.443-0.988-0.989V1.08c0-0.546,0.442-0.989,0.988-0.989
			c0.547,0,0.989,0.442,0.989,0.989v3.957C16.927,5.583,16.485,6.025,15.938,6.025z"/>
		<path fill="#FFFFFF" d="M15.938,31.909c-0.546,0-0.988-0.441-0.988-0.99v-3.956c0-0.547,0.442-0.988,0.988-0.988
			c0.547,0,0.989,0.441,0.989,0.988v3.956C16.927,31.468,16.485,31.909,15.938,31.909z"/>
	</g>
	<g>
		<path fill="#FFFFFF" d="M30.857,16.989h-3.956c-0.548,0-0.99-0.443-0.99-0.989s0.442-0.989,0.99-0.989h3.956
			c0.547,0,0.989,0.442,0.989,0.989S31.404,16.989,30.857,16.989z"/>
		<path fill="#FFFFFF" d="M4.974,16.989H1.017c-0.546,0-0.989-0.443-0.989-0.989s0.442-0.989,0.989-0.989h3.957
			c0.547,0,0.989,0.442,0.989,0.989S5.521,16.989,4.974,16.989z"/>
	</g>
	<g>
		<path fill="#FFFFFF" d="M26.487,27.54c-0.253,0-0.506-0.096-0.699-0.289l-2.799-2.8c-0.386-0.386-0.386-1.013,0-1.398
			c0.388-0.387,1.014-0.387,1.4,0l2.797,2.799c0.386,0.387,0.386,1.015,0,1.399C26.993,27.444,26.74,27.54,26.487,27.54z"/>
		<path fill="#FFFFFF" d="M8.186,9.238c-0.253,0-0.506-0.096-0.7-0.29L4.689,6.15c-0.387-0.387-0.387-1.012,0-1.398
			c0.386-0.386,1.012-0.386,1.398,0l2.798,2.797c0.386,0.386,0.386,1.013,0,1.399C8.691,9.142,8.438,9.238,8.186,9.238z"/>
	</g>
	<g>
		<path fill="#FFFFFF" d="M5.388,27.54c-0.254,0-0.507-0.096-0.699-0.289c-0.387-0.385-0.387-1.013,0-1.399l2.797-2.799
			c0.387-0.387,1.013-0.387,1.399,0c0.386,0.386,0.386,1.013,0,1.398l-2.798,2.8C5.895,27.444,5.641,27.54,5.388,27.54z"/>
		<path fill="#FFFFFF" d="M23.689,9.238c-0.253,0-0.507-0.096-0.7-0.29c-0.386-0.386-0.386-1.013,0-1.399l2.801-2.797
			c0.387-0.385,1.013-0.386,1.398,0s0.386,1.012,0,1.399L24.39,8.949C24.195,9.142,23.942,9.238,23.689,9.238z"/>
	</g>
</g>
</svg>
