<?xml version="1.0" encoding="utf-8"?>
<!-- Generator: Adobe Illustrator 16.0.0, SVG Export Plug-In . SVG Version: 6.00 Build 0)  -->
<!DOCTYPE svg PUBLIC "-//W3C//DTD SVG 1.1//EN" "http://www.w3.org/Graphics/SVG/1.1/DTD/svg11.dtd">
<svg version="1.1" id="Layer_1" xmlns="http://www.w3.org/2000/svg" xmlns:xlink="http://www.w3.org/1999/xlink" x="0px" y="0px"
	 width="32px" height="32px" viewBox="0 0 32 32" enable-background="new 0 0 32 32" xml:space="preserve">
<g>
	<path fill="#FFFFFF" d="M15.938,9.889c0.55,0,0.995-0.445,0.995-0.994V4.917c0-0.549-0.445-0.994-0.995-0.994
		c-0.548,0-0.994,0.445-0.994,0.994v3.978C14.943,9.444,15.389,9.889,15.938,9.889z"/>
	<path fill="#FFFFFF" d="M30.937,18.921h-6.901c-0.492-4.033-3.933-7.168-8.098-7.168c-4.163,0-7.602,3.135-8.095,7.168H4.917H0.939
		c-0.548,0-0.994,0.444-0.994,0.994s0.446,0.994,0.994,0.994h3.978H8.77h14.338h7.829c0.55,0,0.994-0.444,0.994-0.994
		S31.486,18.921,30.937,18.921z M9.845,18.92c0.477-2.933,3.028-5.179,6.093-5.179c3.066,0,5.618,2.246,6.097,5.18L9.845,18.92z"/>
	<path fill="#FFFFFF" d="M7.441,12.827c0.194,0.194,0.448,0.292,0.703,0.292s0.509-0.097,0.703-0.292
		c0.389-0.388,0.389-1.018,0-1.406L6.035,8.608c-0.388-0.388-1.018-0.388-1.406,0c-0.388,0.389-0.388,1.018,0,1.406L7.441,12.827z"
		/>
	<path fill="#FFFFFF" d="M23.731,13.118c0.254,0,0.509-0.097,0.703-0.292l2.813-2.812c0.389-0.388,0.389-1.018,0-1.406
		c-0.388-0.388-1.018-0.388-1.406,0l-2.813,2.812c-0.389,0.388-0.389,1.018,0,1.406C23.223,13.021,23.477,13.118,23.731,13.118z"/>
	<path fill="#FFFFFF" d="M12.188,23.706c0-0.55-0.445-0.994-0.994-0.994H4.606c-0.549,0-0.995,0.444-0.995,0.994
		S4.057,24.7,4.606,24.7h6.587C11.743,24.7,12.188,24.256,12.188,23.706z"/>
	<path fill="#FFFFFF" d="M26.171,22.712H14.425c-0.548,0-0.994,0.444-0.994,0.994s0.446,0.994,0.994,0.994h11.746
		c0.549,0,0.994-0.444,0.994-0.994S26.72,22.712,26.171,22.712z"/>
	<path fill="#FFFFFF" d="M18.962,26.088H9.453c-0.548,0-0.994,0.445-0.994,0.994c0,0.55,0.446,0.995,0.994,0.995h9.509
		c0.549,0,0.994-0.445,0.994-0.995C19.956,26.533,19.511,26.088,18.962,26.088z"/>
	<path fill="#FFFFFF" d="M22.504,26.088h-0.933c-0.549,0-0.994,0.445-0.994,0.994c0,0.55,0.445,0.995,0.994,0.995h0.933
		c0.55,0,0.994-0.445,0.994-0.995C23.498,26.533,23.054,26.088,22.504,26.088z"/>
</g>
</svg>
