<?xml version="1.0" encoding="utf-8"?>
<!-- Generator: Adobe Illustrator 16.0.0, SVG Export Plug-In . SVG Version: 6.00 Build 0)  -->
<!DOCTYPE svg PUBLIC "-//W3C//DTD SVG 1.1//EN" "http://www.w3.org/Graphics/SVG/1.1/DTD/svg11.dtd">
<svg version="1.1" id="Layer_1" xmlns="http://www.w3.org/2000/svg" xmlns:xlink="http://www.w3.org/1999/xlink" x="0px" y="0px"
	 width="32px" height="32px" viewBox="0 0 32 32" enable-background="new 0 0 32 32" xml:space="preserve">
<g>
	<path fill="#FFFFFF" d="M12.101,7.607c0.413,0,0.749-0.335,0.749-0.749V3.863c0-0.414-0.335-0.749-0.749-0.749
		c-0.414,0-0.749,0.335-0.749,0.749v2.995C11.352,7.271,11.687,7.607,12.101,7.607z"/>
	<path fill="#FFFFFF" d="M0.806,15.905h2.995c0.414,0,0.749-0.335,0.749-0.749c0-0.413-0.335-0.749-0.749-0.749H0.806
		c-0.414,0-0.749,0.335-0.749,0.749C0.058,15.57,0.393,15.905,0.806,15.905z"/>
	<path fill="#FFFFFF" d="M5.703,9.818c0.146,0.146,0.338,0.22,0.529,0.22s0.383-0.074,0.529-0.22c0.292-0.292,0.292-0.766,0-1.059
		L4.644,6.642c-0.292-0.292-0.766-0.292-1.059,0c-0.292,0.292-0.292,0.767,0,1.059L5.703,9.818z"/>
	<path fill="#FFFFFF" d="M17.968,10.038c0.192,0,0.383-0.074,0.529-0.219l2.119-2.118c0.292-0.292,0.292-0.767,0.001-1.059
		c-0.292-0.292-0.768-0.292-1.06,0l-2.119,2.117c-0.293,0.293-0.293,0.767,0,1.06C17.585,9.964,17.777,10.038,17.968,10.038z"/>
	<path fill="#FFFFFF" d="M25.993,17.026c-1.217-2.643-3.896-4.383-6.829-4.383c-0.477,0-0.945,0.051-1.401,0.139
		c-0.948-2.25-3.18-3.771-5.662-3.771c-3.389,0-6.147,2.757-6.147,6.146c0,1.028,0.263,2.017,0.749,2.911
		c-0.604,0.441-1.128,0.997-1.539,1.651c-2.692-0.572-5.107,1.548-5.106,4.178c0,2.352,1.914,4.267,4.268,4.267
		c0.76,0,1.491-0.204,2.146-0.594c1.059,0.854,2.367,1.318,3.745,1.318c1.921,0,3.7-0.917,4.817-2.439
		c2,1.314,4.615,1.603,6.858,0.723c1.089,1.035,2.536,1.619,4.045,1.619c3.244,0,5.883-2.639,5.883-5.882
		C31.818,19.684,29.21,17.057,25.993,17.026z M7.452,15.156c0-2.562,2.085-4.648,4.649-4.648c1.82,0,3.467,1.081,4.217,2.701
		c-0.046,0.019-0.091,0.044-0.137,0.064c-0.14,0.061-0.278,0.126-0.415,0.195c-0.068,0.035-0.138,0.071-0.206,0.108
		c-0.17,0.093-0.335,0.192-0.497,0.298c-0.02,0.013-0.041,0.024-0.062,0.038c-0.189,0.126-0.371,0.263-0.548,0.406
		c-0.032,0.025-0.061,0.052-0.093,0.078c-0.155,0.129-0.305,0.265-0.45,0.406c-0.021,0.021-0.042,0.041-0.062,0.061
		c-0.333,0.333-0.636,0.698-0.903,1.091c-0.013,0.019-0.024,0.038-0.038,0.057c-0.117,0.175-0.226,0.354-0.327,0.539
		c-0.018,0.031-0.036,0.062-0.053,0.094c-0.109,0.206-0.213,0.414-0.304,0.632c-0.166-0.06-0.334-0.111-0.504-0.156
		c-0.028-0.007-0.058-0.011-0.085-0.018c-0.143-0.035-0.285-0.067-0.43-0.091c-0.04-0.008-0.08-0.01-0.12-0.016
		c-0.134-0.02-0.268-0.038-0.404-0.047c-0.045-0.003-0.089-0.003-0.135-0.006c-0.11-0.006-0.22-0.014-0.331-0.014
		c-0.019,0-0.037,0.003-0.056,0.003c-0.205,0.002-0.41,0.016-0.614,0.039c-0.116,0.013-0.228,0.033-0.341,0.052
		c-0.084,0.016-0.168,0.031-0.253,0.05c-0.323,0.068-0.642,0.155-0.946,0.276C7.642,16.676,7.452,15.928,7.452,15.156z
		 M25.936,27.292c-1.263,0-2.466-0.55-3.302-1.509c-0.222-0.255-0.583-0.33-0.887-0.183c-2.104,1.002-4.668,0.664-6.436-0.81
		c-0.173-0.144-0.402-0.204-0.624-0.161c-0.22,0.044-0.411,0.185-0.517,0.384c-0.783,1.463-2.298,2.374-3.955,2.374
		c-1.192,0-2.313-0.463-3.159-1.304c-0.146-0.144-0.336-0.218-0.528-0.218c-0.167,0-0.334,0.057-0.472,0.167
		c-0.508,0.414-1.107,0.632-1.732,0.632c-1.527,0-2.77-1.243-2.77-2.77c0-1.528,1.243-2.771,2.77-2.771
		c0.305,0,0.614,0.059,0.944,0.181c0.357,0.128,0.759-0.029,0.929-0.373c0.417-0.843,1.069-1.503,1.85-1.938
		c0.014-0.006,0.03-0.008,0.043-0.016c0.503-0.276,1.037-0.445,1.578-0.515c0.032-0.002,0.066-0.002,0.099-0.006
		c0.872-0.092,1.755,0.073,2.543,0.491c0.199,0.106,0.436,0.116,0.643,0.027c0.208-0.088,0.364-0.265,0.427-0.482
		c0.084-0.288,0.193-0.562,0.316-0.828c0.043-0.095,0.093-0.185,0.141-0.275c0.087-0.168,0.183-0.332,0.286-0.49
		c0.063-0.098,0.128-0.196,0.198-0.29c0.112-0.153,0.235-0.298,0.36-0.438c0.068-0.076,0.13-0.155,0.201-0.227
		c0.196-0.2,0.406-0.386,0.628-0.556c0.064-0.049,0.133-0.09,0.199-0.137c0.175-0.124,0.354-0.24,0.543-0.345
		c0.085-0.048,0.174-0.091,0.262-0.136c0.18-0.088,0.364-0.167,0.551-0.238c0.095-0.036,0.19-0.073,0.287-0.104
		c0.577-0.185,1.184-0.291,1.81-0.291c2.497,0,4.763,1.575,5.639,3.918c0.116,0.313,0.431,0.514,0.762,0.484
		c0.122-0.01,0.246-0.02,0.371-0.02c2.417,0,4.384,1.966,4.384,4.384S28.353,27.292,25.936,27.292z"/>
</g>
</svg>
