<?xml version="1.0" encoding="utf-8"?>
<!-- Generator: Adobe Illustrator 16.0.0, SVG Export Plug-In . SVG Version: 6.00 Build 0)  -->
<!DOCTYPE svg PUBLIC "-//W3C//DTD SVG 1.1//EN" "http://www.w3.org/Graphics/SVG/1.1/DTD/svg11.dtd">
<svg version="1.1" id="Layer_1" xmlns="http://www.w3.org/2000/svg" xmlns:xlink="http://www.w3.org/1999/xlink" x="0px" y="0px"
	 width="32px" height="32px" viewBox="0 0 32 32" enable-background="new 0 0 32 32" xml:space="preserve">
<g>
	<path fill="#FFFFFF" d="M15.665,28.266c-4.424,0-8.538-2.379-10.736-6.215c-1.643-2.864-2.074-6.198-1.209-9.386
		C4.583,9.478,6.636,6.816,9.5,5.172c1.198-0.688,2.512-1.166,3.909-1.424c0.34-0.062,0.681,0.096,0.852,0.394
		c0.171,0.3,0.136,0.676-0.09,0.936c-2.973,3.448-3.452,8.413-1.192,12.354c1.906,3.319,5.476,5.386,9.315,5.386
		c0.653,0,1.31-0.058,1.949-0.179c0.341-0.062,0.681,0.095,0.853,0.393c0.172,0.301,0.135,0.676-0.089,0.938
		c-0.925,1.074-2.003,1.967-3.202,2.655C19.936,27.698,17.812,28.266,15.665,28.266z M11.559,5.973
		c-0.431,0.175-0.849,0.379-1.25,0.61c-2.488,1.428-4.272,3.739-5.021,6.507c-0.75,2.769-0.376,5.665,1.051,8.151
		c1.91,3.329,5.483,5.397,9.327,5.397c1.863,0,3.707-0.493,5.332-1.425c0.402-0.23,0.79-0.487,1.157-0.771
		c-4.366-0.051-8.414-2.416-10.586-6.2C9.369,14.404,9.422,9.725,11.559,5.973z"/>
	<g>
		<path fill="#FFFFFF" d="M28.26,13.02c-0.628,0-1.139-0.51-1.139-1.136c0-0.626,0.511-1.135,1.139-1.135
			c0.625,0,1.135,0.51,1.135,1.135C29.395,12.51,28.887,13.02,28.26,13.02z"/>
	</g>
	<g>
		<path fill="#FFFFFF" d="M19.948,18.904c-0.626,0-1.135-0.51-1.135-1.139c0-0.625,0.509-1.135,1.135-1.135
			c0.625,0,1.137,0.511,1.137,1.135C21.085,18.396,20.573,18.904,19.948,18.904z"/>
	</g>
	<g>
		<path fill="#FFFFFF" d="M21.63,13.46c-0.45,0-0.813-0.364-0.813-0.813c0-2.515-2.447-3.212-2.473-3.218
			c-0.394-0.106-0.646-0.489-0.591-0.892c0.054-0.403,0.397-0.704,0.806-0.704c1.141,0,2.257-1.879,2.257-3.283
			c0-0.449,0.364-0.813,0.812-0.813c0.449,0,0.813,0.364,0.813,0.813c0,1.505-0.793,3.22-1.972,4.173
			c1.021,0.77,1.972,2.041,1.972,3.926C22.441,13.094,22.078,13.46,21.63,13.46z"/>
		<path fill="#FFFFFF" d="M21.856,13.46c-0.45,0-0.812-0.364-0.812-0.813c0-1.884,0.951-3.155,1.972-3.925
			c-1.18-0.953-1.972-2.669-1.972-4.173c0-0.45,0.362-0.813,0.812-0.813s0.812,0.364,0.812,0.813c0,1.403,1.116,3.283,2.258,3.283
			c0.407,0,0.753,0.301,0.808,0.705c0.054,0.404-0.198,0.785-0.594,0.892c-0.095,0.028-2.472,0.731-2.472,3.218
			C22.669,13.094,22.307,13.46,21.856,13.46z"/>
	</g>
</g>
</svg>
